<svg width="329" height="106" viewBox="0 0 329 106" fill="none" xmlns="http://www.w3.org/2000/svg">
<g clip-path="url(#clip0_4_28)">
<path d="M0 75.0134C0.690929 72.3119 1.13195 69.5082 2.10219 66.9089C8.33525 50.0138 26.1524 48.8018 35.3256 54.5698C42.867 59.301 45.7337 66.5877 45.8366 75.2032C45.866 77.2768 44.7046 78.2113 42.4407 78.2697C38.3833 78.3574 34.326 78.372 30.2833 78.4158C22.8448 78.4888 15.3916 78.5618 7.95304 78.6494C7.57082 78.6494 7.17391 78.7224 6.82109 78.7516C5.54214 83.7749 7.87954 93.4418 15.1857 97.2969C18.5669 99.0784 22.1391 99.9107 25.9025 99.9253C30.9595 99.9545 36.0018 99.8523 41.0588 99.8231C41.7939 99.8231 42.5289 99.8231 43.2492 99.9545C44.7781 100.232 45.4984 101.225 45.5131 102.787C45.5131 104.35 44.8222 105.431 43.2786 105.606C41.6322 105.796 39.9563 105.723 38.3098 105.796C37.2514 105.839 36.2076 105.942 35.1639 106.029H23.5798C22.8742 105.898 22.1538 105.723 21.4482 105.62C11.6282 104.248 4.6748 99.239 1.60237 89.4845C0.896738 87.2649 0.543923 84.9431 0.0294013 82.6797V75.028L0 75.0134ZM40.0592 73.1588C39.2066 63.4043 31.621 56.4973 22.8154 57.0814C14.0391 57.6655 6.80639 65.1712 7.26211 73.1588H40.0592Z" fill="#1C1C28"/>
<path d="M164.441 69.3914C164.441 67.7267 164.544 66.3686 164.426 65.0544C163.912 59.4032 161.222 56.9208 155.591 56.9062C150.005 56.877 144.419 56.9354 138.833 56.95C138.23 56.95 137.627 56.9792 137.039 56.8916C135.584 56.6725 134.628 55.6504 134.761 54.3069C134.864 53.2847 135.613 52.1165 136.422 51.4448C137.025 50.9337 138.186 50.9921 139.112 50.9775C144.36 50.9191 149.623 50.8753 154.871 50.9191C156.591 50.9191 158.326 51.0798 160.016 51.4156C166.955 52.7737 170.498 57.3881 170.527 65.1274C170.571 77.1307 170.527 89.134 170.527 101.123C170.527 101.327 170.527 101.532 170.527 101.721C170.483 103.211 170.042 104.335 168.278 104.438C166.514 104.54 165.485 103.839 165.279 102.028C165.22 101.517 165.088 101.006 164.956 100.32C158.296 106 150.608 106.029 142.905 104.657C132.791 102.86 129.63 95.53 130.791 86.4472C131.688 79.4087 136.231 75.2032 142.434 72.6039C148.359 70.1215 154.636 69.5374 160.972 69.406C162.089 69.3768 163.206 69.406 164.441 69.406V69.3914ZM164.441 75.1156C159.267 74.7067 151.181 75.5829 146.815 77.5542C144.213 78.7224 141.493 80.2703 139.641 82.3731C134.305 88.4039 136.922 96.961 144.537 99.0492C149.197 100.32 153.901 100.057 158.429 98.3045C161.942 96.9464 164.206 94.2887 164.382 90.4775C164.618 85.4104 164.441 80.3287 164.441 75.1302V75.1156Z" fill="#1C1C28"/>
<path d="M275.21 99.239C268.301 104.89 260.554 105.08 252.674 103.488C242.987 101.532 239.885 94.3472 240.943 85.5126C241.737 78.8392 245.883 74.5753 251.748 71.903C257.099 69.4644 262.803 68.6466 268.61 68.4422C270.536 68.3692 272.461 68.4422 274.314 68.4422C276.372 61.2578 272.55 55.8402 265.493 55.7818C259.775 55.738 254.056 55.8548 248.338 55.884C246.765 55.884 245.427 55.5189 244.971 53.7228C244.545 52.0143 245.515 50.1744 247.22 50.1598C254.791 50.1014 262.406 49.6487 269.903 50.4373C277.166 51.1966 280.664 56.2345 280.708 63.9738C280.767 75.3638 280.723 86.7684 280.723 98.1584C280.723 98.9616 280.708 99.7647 280.723 100.568C280.767 102.32 280.018 103.459 278.209 103.488C276.563 103.518 275.637 102.598 275.49 100.918C275.446 100.466 275.343 100.013 275.21 99.2536V99.239ZM274.666 73.816C267.331 74.0788 260.26 74.4147 253.792 77.9193C252.645 78.5472 251.542 79.3795 250.616 80.3141C247.588 83.4098 246.456 87.1481 247.573 91.3682C248.617 95.2817 251.616 97.1655 255.306 98.0854C259.613 99.1806 263.891 98.874 268.066 97.4429C271.932 96.1141 274.417 93.3688 274.622 89.2071C274.858 84.1984 274.681 79.1751 274.681 73.816H274.666Z" fill="#1C1C28"/>
<path d="M75.3995 51.5178C79.06 51.5178 82.7057 51.5178 86.3662 51.5178C87.8068 51.5178 89.174 51.7515 89.8649 53.2994C90.8646 55.5627 89.3945 57.4173 86.4838 57.4611C79.4422 57.5633 72.3859 57.5049 65.3443 57.7823C63.6978 57.8407 61.772 58.5709 60.5372 59.6515C57.6706 62.1777 58.4791 66.3686 62.1248 67.42C65.8 68.4714 69.681 68.7635 73.459 69.3914C76.6638 69.9317 79.942 70.2237 83.0585 71.0999C91.0263 73.3341 94.6573 78.3427 94.7749 86.6662C94.9072 97.1801 88.7036 104.408 78.2808 105.109C70.5924 105.62 62.8599 105.474 55.1568 105.562C53.1722 105.577 52.1284 104.423 52.1431 102.598C52.1725 100.758 53.2604 99.7063 55.4508 99.6625C61.3751 99.5749 67.2848 99.5749 73.2091 99.5165C74.7968 99.5165 76.4139 99.5457 77.9868 99.385C84.1464 98.7279 87.8803 94.9459 88.586 88.769C89.3357 82.2416 87.1453 78.5618 80.7799 77.0577C75.7523 75.8749 70.563 75.4368 65.4472 74.6045C63.7419 74.327 62.0513 73.9766 60.4049 73.4947C53.7161 71.5088 51.8344 67.1572 53.3633 60.44C54.5687 55.1393 58.7437 51.9267 64.2123 51.7807C67.9316 51.6785 71.6656 51.7661 75.3848 51.7661V51.5324L75.3995 51.5178Z" fill="#1C1C28"/>
<path d="M224.317 55.6796V58.3664C224.317 68.8949 224.493 79.4233 224.258 89.9518C224.111 96.5375 227.184 97.9686 232.417 98.2898C234.534 98.4213 236.68 98.3337 238.797 98.3044C240.517 98.3044 241.678 99.0492 241.825 100.801C241.972 102.554 240.914 103.722 239.238 103.722C234.666 103.722 230.035 103.883 225.537 103.24C221.186 102.612 218.848 99.239 218.437 94.4932C218.319 93.0913 218.26 91.6895 218.26 90.273C218.26 79.6132 218.26 68.9533 218.26 58.2788V55.738C216.555 55.738 215.114 55.7964 213.674 55.7234C212.042 55.6358 211.101 54.745 211.086 53.0219C211.086 51.2842 212.071 50.4957 213.688 50.335C213.821 50.335 213.953 50.3058 214.085 50.2912C215.394 50.189 217.378 50.5541 217.849 49.8824C218.554 48.8456 218.231 47.0933 218.26 45.633C218.304 43.0922 218.216 40.5367 218.304 37.9959C218.393 35.6157 219.304 34.6081 221.097 34.6081C222.994 34.6081 224.243 35.8639 224.302 38.1711C224.39 41.2522 224.332 44.3334 224.332 47.4291C224.332 48.2323 224.332 49.0208 224.332 50.0722C227.081 50.0722 229.712 50.0722 232.343 50.0722C233.608 50.0722 234.872 50.0284 236.136 50.0722C238.106 50.1452 239.15 51.109 239.165 52.7883C239.179 54.4676 238.209 55.5336 236.224 55.6066C233.505 55.7234 230.77 55.6504 228.036 55.665C226.919 55.665 225.787 55.665 224.317 55.665V55.6796Z" fill="#1C1C28"/>
<path d="M108.285 56.877C106.55 56.877 105.095 56.9208 103.639 56.877C102.052 56.8186 100.979 56.1177 100.861 54.3653C100.743 52.5254 101.758 51.5763 103.419 51.4156C104.918 51.2696 106.462 51.3864 108.285 51.3864C108.285 47.7942 108.255 44.4064 108.299 41.0186C108.299 39.9526 108.373 38.8574 108.652 37.8499C109.064 36.3166 110.211 35.528 111.798 35.6449C113.386 35.7617 114.194 36.7985 114.239 38.3025C114.341 41.7195 114.327 45.1365 114.356 48.5535C114.356 49.4151 114.356 50.262 114.356 51.2404C118.369 51.2404 122.147 51.2112 125.926 51.2404C128.072 51.255 129.174 52.4086 128.939 54.2923C128.719 56.03 127.513 56.5995 125.97 56.6433C122.912 56.731 119.854 56.7602 116.796 56.8186C116.076 56.8186 115.356 56.8186 114.341 56.8186V59.1258C114.341 69.9171 114.341 80.7084 114.341 91.4997C114.341 96.9172 115.959 98.7717 121.28 99.239C123.588 99.4435 125.926 99.3412 128.248 99.3996C130.527 99.4581 131.688 100.407 131.644 102.174C131.6 103.839 130.439 104.803 128.336 104.817C124.691 104.846 121.016 104.978 117.384 104.759C112.313 104.452 109.314 101.532 108.638 96.5083C108.402 94.7852 108.285 93.0329 108.285 91.3098C108.255 80.65 108.27 70.0047 108.27 59.3448V56.877H108.285Z" fill="#1C1C28"/>
<path d="M189.418 56.8186C193.504 50.6855 198.958 49.1376 205.338 50.0722C207.514 50.3934 208.528 51.5178 208.381 53.0949C208.234 54.7158 207.044 55.6065 204.956 55.6942C203.765 55.738 202.56 55.6942 201.369 55.8694C193.328 57.0376 189.476 61.8564 189.418 70.8954C189.359 80.4747 189.418 90.0686 189.403 99.6479C189.403 100.451 189.359 101.254 189.3 102.057C189.212 103.518 188.462 104.496 187.007 104.657C185.448 104.832 184.258 104.072 183.758 102.568C183.493 101.765 183.493 100.845 183.493 99.9837C183.493 84.9723 183.493 69.9463 183.493 54.9348C183.493 51.7223 184.272 50.5103 186.301 50.5541C188.374 50.5979 189.344 51.9851 189.403 55.0663C189.403 55.4605 189.403 55.8548 189.403 56.8186H189.418Z" fill="#1C1C28"/>
<path d="M305.655 46.3777C318.548 46.3777 329 35.9957 329 23.1889C329 10.382 318.548 0 305.655 0C292.763 0 282.311 10.382 282.311 23.1889C282.311 35.9957 292.763 46.3777 305.655 46.3777Z" fill="#E30613"/>
<path d="M305.655 23.1889L289.029 13.6534V32.7389L305.655 23.1889Z" fill="white"/>
<path d="M322.282 23.1889L305.641 13.6534V32.7389L322.282 23.1889Z" fill="white"/>
<path d="M305.655 46.3777C318.548 46.3777 329 35.9957 329 23.1889C329 10.382 318.548 0 305.655 0C292.762 0 282.311 10.382 282.311 23.1889C282.311 35.9957 292.762 46.3777 305.655 46.3777Z" fill="#E30613"/>
<path d="M305.655 23.1889L289.029 13.6534V32.7389L305.655 23.1889Z" fill="white"/>
<path d="M322.282 23.1889L305.641 13.6534V32.7389L322.282 23.1889Z" fill="white"/>
</g>
<defs>
<clipPath id="clip0_4_28">
<rect width="329" height="106" fill="white"/>
</clipPath>
</defs>
</svg>
